<svg width="289" height="39" viewBox="0 0 289 39" fill="none" xmlns="http://www.w3.org/2000/svg">
<path d="M15.212 31L25.196 8.6H30.316L40.332 31H34.892L26.7 11.224H28.748L20.524 31H15.212ZM20.204 26.2L21.58 22.264H33.1L34.508 26.2H20.204ZM49.5398 31.256C47.9184 31.256 46.4571 30.8933 45.1558 30.168C43.8544 29.4213 42.8198 28.3867 42.0518 27.064C41.3051 25.7413 40.9318 24.184 40.9318 22.392C40.9318 20.5787 41.3051 19.0107 42.0518 17.688C42.8198 16.3653 43.8544 15.3413 45.1558 14.616C46.4571 13.8907 47.9184 13.528 49.5398 13.528C50.9904 13.528 52.2598 13.848 53.3478 14.488C54.4358 15.128 55.2784 16.0987 55.8758 17.4C56.4731 18.7013 56.7718 20.3653 56.7718 22.392C56.7718 24.3973 56.4838 26.0613 55.9078 27.384C55.3318 28.6853 54.4998 29.656 53.4118 30.296C52.3451 30.936 51.0544 31.256 49.5398 31.256ZM50.4038 27.16C51.2144 27.16 51.9504 26.968 52.6118 26.584C53.2731 26.2 53.7958 25.656 54.1798 24.952C54.5851 24.2267 54.7878 23.3733 54.7878 22.392C54.7878 21.3893 54.5851 20.536 54.1798 19.832C53.7958 19.128 53.2731 18.584 52.6118 18.2C51.9504 17.816 51.2144 17.624 50.4038 17.624C49.5718 17.624 48.8251 17.816 48.1638 18.2C47.5024 18.584 46.9691 19.128 46.5638 19.832C46.1798 20.536 45.9878 21.3893 45.9878 22.392C45.9878 23.3733 46.1798 24.2267 46.5638 24.952C46.9691 25.656 47.5024 26.2 48.1638 26.584C48.8251 26.968 49.5718 27.16 50.4038 27.16ZM54.9158 31V27.48L55.0118 22.36L54.6918 17.272V7.256H59.6838V31H54.9158ZM86.352 13.528C87.7173 13.528 88.9227 13.8053 89.968 14.36C91.0347 14.8933 91.8667 15.7253 92.464 16.856C93.0827 17.9653 93.392 19.3947 93.392 21.144V31H88.4V21.912C88.4 20.5253 88.112 19.5013 87.536 18.84C86.96 18.1787 86.1493 17.848 85.104 17.848C84.3787 17.848 83.728 18.0187 83.152 18.36C82.576 18.68 82.128 19.1707 81.808 19.832C81.488 20.4933 81.328 21.336 81.328 22.36V31H76.336V21.912C76.336 20.5253 76.048 19.5013 75.472 18.84C74.9173 18.1787 74.1173 17.848 73.072 17.848C72.3467 17.848 71.696 18.0187 71.12 18.36C70.544 18.68 70.096 19.1707 69.776 19.832C69.456 20.4933 69.296 21.336 69.296 22.36V31H64.304V13.784H69.072V18.488L68.176 17.112C68.7733 15.9387 69.616 15.0533 70.704 14.456C71.8133 13.8373 73.072 13.528 74.48 13.528C76.0587 13.528 77.4347 13.9333 78.608 14.744C79.8027 15.5333 80.592 16.7493 80.976 18.392L79.216 17.912C79.792 16.568 80.7093 15.5013 81.968 14.712C83.248 13.9227 84.7093 13.528 86.352 13.528ZM97.8665 31V13.784H102.859V31H97.8665ZM100.363 11.384C99.4452 11.384 98.6985 11.1173 98.1225 10.584C97.5465 10.0507 97.2585 9.38933 97.2585 8.6C97.2585 7.81067 97.5465 7.14933 98.1225 6.616C98.6985 6.08267 99.4452 5.816 100.363 5.816C101.28 5.816 102.027 6.072 102.603 6.584C103.179 7.07467 103.467 7.71467 103.467 8.504C103.467 9.336 103.179 10.0293 102.603 10.584C102.048 11.1173 101.301 11.384 100.363 11.384ZM117.956 13.528C119.321 13.528 120.537 13.8053 121.604 14.36C122.692 14.8933 123.545 15.7253 124.164 16.856C124.782 17.9653 125.092 19.3947 125.092 21.144V31H120.1V21.912C120.1 20.5253 119.79 19.5013 119.172 18.84C118.574 18.1787 117.721 17.848 116.612 17.848C115.822 17.848 115.108 18.0187 114.468 18.36C113.849 18.68 113.358 19.1813 112.996 19.864C112.654 20.5467 112.484 21.4213 112.484 22.488V31H107.492V13.784H112.26V18.552L111.364 17.112C111.982 15.96 112.868 15.0747 114.02 14.456C115.172 13.8373 116.484 13.528 117.956 13.528ZM146.391 31.384C144.599 31.384 142.882 31.1493 141.239 30.68C139.596 30.1893 138.274 29.56 137.271 28.792L139.031 24.888C139.991 25.5707 141.122 26.136 142.423 26.584C143.746 27.0107 145.079 27.224 146.423 27.224C147.447 27.224 148.268 27.128 148.887 26.936C149.527 26.7227 149.996 26.4347 150.295 26.072C150.594 25.7093 150.743 25.2933 150.743 24.824C150.743 24.2267 150.508 23.7573 150.039 23.416C149.57 23.0533 148.951 22.7653 148.183 22.552C147.415 22.3173 146.562 22.104 145.623 21.912C144.706 21.6987 143.778 21.4427 142.839 21.144C141.922 20.8453 141.079 20.4613 140.311 19.992C139.543 19.5227 138.914 18.904 138.423 18.136C137.954 17.368 137.719 16.3867 137.719 15.192C137.719 13.912 138.06 12.7493 138.743 11.704C139.447 10.6373 140.492 9.79467 141.879 9.176C143.287 8.536 145.047 8.216 147.159 8.216C148.567 8.216 149.954 8.38667 151.319 8.728C152.684 9.048 153.89 9.53867 154.935 10.2L153.335 14.136C152.29 13.5387 151.244 13.1013 150.199 12.824C149.154 12.5253 148.13 12.376 147.127 12.376C146.124 12.376 145.303 12.4933 144.663 12.728C144.023 12.9627 143.564 13.272 143.287 13.656C143.01 14.0187 142.871 14.4453 142.871 14.936C142.871 15.512 143.106 15.9813 143.575 16.344C144.044 16.6853 144.663 16.9627 145.431 17.176C146.199 17.3893 147.042 17.6027 147.959 17.816C148.898 18.0293 149.826 18.2747 150.743 18.552C151.682 18.8293 152.535 19.2027 153.303 19.672C154.071 20.1413 154.69 20.76 155.159 21.528C155.65 22.296 155.895 23.2667 155.895 24.44C155.895 25.6987 155.543 26.8507 154.839 27.896C154.135 28.9413 153.079 29.784 151.671 30.424C150.284 31.064 148.524 31.384 146.391 31.384ZM166.125 31.256C164.099 31.256 162.52 30.744 161.389 29.72C160.259 28.6747 159.693 27.128 159.693 25.08V9.976H164.685V25.016C164.685 25.7413 164.877 26.3067 165.261 26.712C165.645 27.096 166.168 27.288 166.829 27.288C167.619 27.288 168.291 27.0747 168.845 26.648L170.189 30.168C169.677 30.5307 169.059 30.808 168.333 31C167.629 31.1707 166.893 31.256 166.125 31.256ZM157.037 18.008V14.168H168.973V18.008H157.037ZM180.256 31.256C178.826 31.256 177.546 30.9787 176.416 30.424C175.306 29.8693 174.442 29.0267 173.824 27.896C173.205 26.744 172.896 25.2827 172.896 23.512V13.784H177.888V22.776C177.888 24.2053 178.186 25.2613 178.784 25.944C179.402 26.6053 180.266 26.936 181.376 26.936C182.144 26.936 182.826 26.776 183.424 26.456C184.021 26.1147 184.49 25.6027 184.832 24.92C185.173 24.216 185.344 23.3413 185.344 22.296V13.784H190.336V31H185.6V26.264L186.464 27.64C185.888 28.8347 185.034 29.7413 183.904 30.36C182.794 30.9573 181.578 31.256 180.256 31.256ZM202.352 31.256C200.731 31.256 199.27 30.8933 197.968 30.168C196.667 29.4213 195.632 28.3867 194.864 27.064C194.118 25.7413 193.744 24.184 193.744 22.392C193.744 20.5787 194.118 19.0107 194.864 17.688C195.632 16.3653 196.667 15.3413 197.968 14.616C199.27 13.8907 200.731 13.528 202.352 13.528C203.803 13.528 205.072 13.848 206.16 14.488C207.248 15.128 208.091 16.0987 208.688 17.4C209.286 18.7013 209.584 20.3653 209.584 22.392C209.584 24.3973 209.296 26.0613 208.72 27.384C208.144 28.6853 207.312 29.656 206.224 30.296C205.158 30.936 203.867 31.256 202.352 31.256ZM203.216 27.16C204.027 27.16 204.763 26.968 205.424 26.584C206.086 26.2 206.608 25.656 206.992 24.952C207.398 24.2267 207.6 23.3733 207.6 22.392C207.6 21.3893 207.398 20.536 206.992 19.832C206.608 19.128 206.086 18.584 205.424 18.2C204.763 17.816 204.027 17.624 203.216 17.624C202.384 17.624 201.638 17.816 200.976 18.2C200.315 18.584 199.782 19.128 199.376 19.832C198.992 20.536 198.8 21.3893 198.8 22.392C198.8 23.3733 198.992 24.2267 199.376 24.952C199.782 25.656 200.315 26.2 200.976 26.584C201.638 26.968 202.384 27.16 203.216 27.16ZM207.728 31V27.48L207.824 22.36L207.504 17.272V7.256H212.496V31H207.728ZM225.661 31.256C223.698 31.256 221.97 30.872 220.477 30.104C219.005 29.336 217.863 28.2907 217.053 26.968C216.242 25.624 215.837 24.0987 215.837 22.392C215.837 20.664 216.231 19.1387 217.021 17.816C217.831 16.472 218.93 15.4267 220.317 14.68C221.703 13.912 223.271 13.528 225.021 13.528C226.706 13.528 228.221 13.8907 229.565 14.616C230.93 15.32 232.007 16.344 232.797 17.688C233.586 19.0107 233.981 20.6 233.981 22.456C233.981 22.648 233.97 22.872 233.949 23.128C233.927 23.3627 233.906 23.5867 233.885 23.8H219.901V20.888H231.26L229.341 21.752C229.341 20.856 229.159 20.0773 228.797 19.416C228.434 18.7547 227.933 18.2427 227.293 17.88C226.653 17.496 225.906 17.304 225.053 17.304C224.199 17.304 223.442 17.496 222.781 17.88C222.141 18.2427 221.639 18.7653 221.277 19.448C220.914 20.1093 220.733 20.8987 220.733 21.816V22.584C220.733 23.5227 220.935 24.3547 221.341 25.08C221.767 25.784 222.354 26.328 223.101 26.712C223.869 27.0747 224.765 27.256 225.789 27.256C226.706 27.256 227.506 27.1173 228.189 26.84C228.893 26.5627 229.533 26.1467 230.109 25.592L232.765 28.472C231.975 29.368 230.983 30.0613 229.789 30.552C228.594 31.0213 227.218 31.256 225.661 31.256ZM247.768 13.528C249.133 13.528 250.349 13.8053 251.416 14.36C252.504 14.8933 253.357 15.7253 253.976 16.856C254.595 17.9653 254.904 19.3947 254.904 21.144V31H249.912V21.912C249.912 20.5253 249.603 19.5013 248.984 18.84C248.387 18.1787 247.533 17.848 246.424 17.848C245.635 17.848 244.92 18.0187 244.28 18.36C243.661 18.68 243.171 19.1813 242.808 19.864C242.467 20.5467 242.296 21.4213 242.296 22.488V31H237.304V13.784H242.072V18.552L241.176 17.112C241.795 15.96 242.68 15.0747 243.832 14.456C244.984 13.8373 246.296 13.528 247.768 13.528ZM266.469 31.256C264.442 31.256 262.864 30.744 261.733 29.72C260.602 28.6747 260.037 27.128 260.037 25.08V9.976H265.029V25.016C265.029 25.7413 265.221 26.3067 265.605 26.712C265.989 27.096 266.512 27.288 267.173 27.288C267.962 27.288 268.634 27.0747 269.189 26.648L270.533 30.168C270.021 30.5307 269.402 30.808 268.677 31C267.973 31.1707 267.237 31.256 266.469 31.256ZM257.381 18.008V14.168H269.317V18.008H257.381ZM279.127 31.256C277.655 31.256 276.237 31.0853 274.871 30.744C273.527 30.3813 272.461 29.9333 271.671 29.4L273.335 25.816C274.125 26.3067 275.053 26.712 276.119 27.032C277.207 27.3307 278.274 27.48 279.319 27.48C280.471 27.48 281.282 27.3413 281.751 27.064C282.242 26.7867 282.487 26.4027 282.487 25.912C282.487 25.5067 282.295 25.208 281.911 25.016C281.549 24.8027 281.058 24.6427 280.439 24.536C279.821 24.4293 279.138 24.3227 278.391 24.216C277.666 24.1093 276.93 23.9707 276.183 23.8C275.437 23.608 274.754 23.3307 274.135 22.968C273.517 22.6053 273.015 22.1147 272.631 21.496C272.269 20.8773 272.087 20.0773 272.087 19.096C272.087 18.008 272.397 17.048 273.015 16.216C273.655 15.384 274.573 14.7333 275.767 14.264C276.962 13.7733 278.391 13.528 280.055 13.528C281.229 13.528 282.423 13.656 283.639 13.912C284.855 14.168 285.869 14.5413 286.679 15.032L285.015 18.584C284.183 18.0933 283.341 17.7627 282.487 17.592C281.655 17.4 280.845 17.304 280.055 17.304C278.946 17.304 278.135 17.4533 277.623 17.752C277.111 18.0507 276.855 18.4347 276.855 18.904C276.855 19.3307 277.037 19.6507 277.399 19.864C277.783 20.0773 278.285 20.248 278.903 20.376C279.522 20.504 280.194 20.6213 280.919 20.728C281.666 20.8133 282.413 20.952 283.159 21.144C283.906 21.336 284.578 21.6133 285.175 21.976C285.794 22.3173 286.295 22.7973 286.679 23.416C287.063 24.0133 287.255 24.8027 287.255 25.784C287.255 26.8507 286.935 27.8 286.295 28.632C285.655 29.4427 284.727 30.0827 283.511 30.552C282.317 31.0213 280.855 31.256 279.127 31.256Z" fill="black"/>
<path d="M3 0L3 39" stroke="#F8D442" stroke-width="6"/>
</svg>
