<svg width="19" height="19" viewBox="0 0 19 19" fill="none" xmlns="http://www.w3.org/2000/svg">
<path d="M18.3042 2.08777L16.9123 0.695801C16.4488 0.231934 15.8409 0 15.2331 0C14.6252 0 14.0174 0.231934 13.5535 0.69543L0.476893 13.772L0.00560345 18.0107C-0.0537716 18.5443 0.366678 19 0.888807 19C0.921834 19 0.954861 18.9981 0.988631 18.9944L5.2243 18.5265L18.3046 5.44617C19.232 4.51881 19.232 3.01514 18.3042 2.08777ZM4.67916 17.3924L1.22687 17.775L1.61133 14.3175L11.4041 4.52475L14.4757 7.59629L4.67916 17.3924ZM17.4648 4.60676L15.3151 6.7565L12.2435 3.68496L14.3933 1.53521C14.6174 1.31107 14.9158 1.1875 15.2331 1.1875C15.5504 1.1875 15.8483 1.31107 16.0729 1.53521L17.4648 2.92719C17.9276 3.39031 17.9276 4.14363 17.4648 4.60676Z" fill="#FEAF00"/>
</svg>
